<svg width="200" height="50" viewBox="0 0 200 50" xmlns="http://www.w3.org/2000/svg" font-family="EB Garamond, serif">
  <style>
    .lotus-path {
      stroke: #991b1b;
      stroke-width: 1.5;
      fill: #fde8e8;
    }
    .text-main {
      font-size: 28px;
      font-weight: 700;
      fill: #4A2C17;
    }
    .text-sub {
      font-size: 12px;
      font-weight: 500;
      fill: #856a5d;
      letter-spacing: 0.1em;
    }
  </style>
  
  <g transform="translate(25, 25)">
    <path class="lotus-path" d="M 0,-20 C 15,-20 15,-5 20,0 C 15,5 15,20 0,20 C -15,20 -15,5 -20,0 C -15,-5 -15,-20 0,-20 Z" transform="scale(0.8)"/>
    <path class="lotus-path" d="M 0,-15 C 10,-15 10,-3 15,0 C 10,3 10,15 0,15 C -10,15 -10,3 -15,0 C -10,-3 -10,-15 0,-15 Z" transform="scale(0.6)"/>
  </g>
  
  <text x="60" y="28" class="text-main">Giác Ngộ AI</text>
  <text x="62" y="42" class="text-sub">ENLIGHTENMENT</text>
</svg>
